<svg width="101" height="90" viewBox="0 0 101 90" fill="none" xmlns="http://www.w3.org/2000/svg">
<mask id="mask0_7_68" style="mask-type:alpha" maskUnits="userSpaceOnUse" x="0" y="0" width="101" height="90">
<rect y="1.52588e-05" width="101" height="89.2044" fill="#C4C4C4"/>
</mask>
<g mask="url(#mask0_7_68)">
<path d="M51.2143 58.9684C61.2146 58.9684 69.3214 50.8616 69.3214 40.8614C69.3214 30.8611 61.2146 22.7543 51.2143 22.7543C41.2141 22.7543 33.1073 30.8611 33.1073 40.8614C33.1073 50.8616 41.2141 58.9684 51.2143 58.9684Z" fill="#FFB8B8"/>
<path d="M29.2854 158.011C31.6032 159.61 57.7178 176.819 87.4838 163.132C87.0981 159.808 83.3837 126.433 86.628 101.83C88.167 90.1564 83.5187 79.342 73.875 72.1591C68.6375 68.2767 62.4594 65.861 55.9775 65.1611C49.4956 64.4612 42.9443 65.5023 36.9987 68.1771H36.9986C36.5099 68.396 36.0178 68.6237 35.5223 68.8603L29.2854 158.011Z" fill="white"/>
<path d="M87.7663 162.857C87.3069 162.857 86.8525 162.762 86.4321 162.576C86.0117 162.391 85.6345 162.12 85.3246 161.781L81.3638 157.46C80.9786 157.037 80.7086 156.523 80.5797 155.965C80.4508 155.408 80.4674 154.827 80.6279 154.278L89.6994 123.575L75.8969 94.5898C75.2917 93.3156 75.1434 91.8719 75.477 90.5013C75.7712 89.2982 76.4231 88.2126 77.3468 87.3875C78.2705 86.5625 79.4227 86.0369 80.6512 85.8799C81.8797 85.723 83.1269 85.9421 84.2284 86.5084C85.3299 87.0747 86.2338 87.9616 86.821 89.052L105.48 119.328C106.206 120.504 106.632 121.841 106.72 123.22C106.809 124.599 106.558 125.979 105.988 127.239L90.7941 160.904C90.5688 161.405 90.2224 161.842 89.7862 162.175C89.3499 162.509 88.8375 162.729 88.2951 162.815C88.1202 162.843 87.9434 162.857 87.7663 162.857V162.857Z" fill="white"/>
<path d="M35.2624 159.005C35.1374 159.005 35.0125 158.998 34.8882 158.984L27.1735 158.127C26.3396 158.031 25.5725 157.625 25.0258 156.988C24.479 156.351 24.193 155.531 24.2251 154.693L27.4172 77.4443C27.5173 75.0214 28.4968 72.718 30.1725 70.9651C31.8481 69.2122 34.1051 68.1299 36.521 67.9206C38.9369 67.7114 41.3463 68.3896 43.2983 69.8283C45.2504 71.267 46.6114 73.3677 47.1266 75.7373L49.1828 85.196L49.1727 85.2629L38.5353 156.178C38.42 156.964 38.0259 157.682 37.425 158.201C36.8241 158.72 36.0564 159.005 35.2624 159.005V159.005Z" fill="white"/>
<path d="M66.133 56.825C64.2554 57.1469 62.7104 54.5333 62.4767 52.6949C62.243 50.8565 62.9131 49.0968 62.9862 47.2703C63.0592 45.4439 62.1979 43.2243 60.3011 42.6828C58.3124 42.1151 56.4689 43.7103 54.4332 43.5184C51.5964 43.2511 50.1722 39.9313 49.8285 37.2457C49.4849 34.5601 49.2148 31.3798 46.7581 29.8483C44.3089 28.3215 41.2791 29.4324 38.4649 29.4799C33.7086 29.5602 28.8668 25.9332 27.7552 21.4572C28.3322 21.6235 28.9482 21.5926 29.5057 21.3694C30.0631 21.1461 30.5301 20.7433 30.8328 20.2247C31.0711 19.6714 31.1197 19.0548 30.9711 18.471C30.8225 17.8872 30.4851 17.3689 30.0112 16.9969L35.4027 19.637C34.6658 18.1374 35.7786 16.4292 37.3103 15.8613C38.8421 15.2934 40.6241 15.5485 42.3144 15.8111C50.756 17.1226 60.5336 16.4762 66.133 22.9126C70.0115 27.3707 73.2041 35.8541 72.7681 41.3432C72.3321 46.8323 66.133 56.825 66.133 56.825Z" fill="#2F2E41"/>
</g>
</svg>
