<svg width="257" height="256" viewBox="0 0 257 256" fill="none" xmlns="http://www.w3.org/2000/svg">
<path d="M127.676 230.245L115.901 242.02V243.856C115.901 250.562 121.34 256.001 128.046 256.001C128.063 256.001 128.08 255.996 128.094 255.996V230.663L127.676 230.245Z" fill="#4B9EEA"/>
<path d="M127.676 230.245L115.901 242.02V243.856C115.901 250.562 121.34 256.001 128.046 256.001C128.063 256.001 128.08 255.996 128.094 255.996V230.663L127.676 230.245Z" fill="#4B9EEA"/>
<path d="M127.676 205.478C127.815 205.429 127.956 205.395 128.094 205.354V145.58L115.901 157.773V207.795C119.231 204.919 123.71 204.142 127.676 205.478Z" fill="#4B9EEA"/>
<path d="M127.676 205.478C127.815 205.429 127.956 205.395 128.094 205.354V145.58L115.901 157.773V207.795C119.231 204.919 123.71 204.142 127.676 205.478Z" fill="#4B9EEA"/>
<path d="M128.094 48.4999C124.191 50.3774 119.525 50.0714 115.901 47.5332V98.2959L128.094 110.489V48.4999Z" fill="#4B9EEA"/>
<path d="M128.094 48.4999C124.191 50.3774 119.525 50.0714 115.901 47.5332V98.2959L128.094 110.489V48.4999Z" fill="#4B9EEA"/>
<path d="M128.094 0.00493998C128.077 0.00493998 128.063 8.2663e-05 128.046 8.2663e-05C121.34 8.2663e-05 115.901 5.43582 115.901 12.1443V13.485L128.094 25.6777V0.00493998Z" fill="#4B9EEA"/>
<path d="M128.094 0.00493998C128.077 0.00493998 128.063 8.2663e-05 128.046 8.2663e-05C121.34 8.2663e-05 115.901 5.43582 115.901 12.1443V13.485L128.094 25.6777V0.00493998Z" fill="#4B9EEA"/>
<path d="M106.747 4.33041C102.003 -0.413108 94.3159 -0.413108 89.5724 4.33041C84.8313 9.07393 84.8313 16.7612 89.5724 21.5047L114.257 46.189C114.769 46.7015 115.33 47.1338 115.903 47.5345V13.4871L106.747 4.33041Z" fill="#4B9EEA"/>
<path d="M106.747 4.33041C102.003 -0.413108 94.3159 -0.413108 89.5724 4.33041C84.8313 9.07393 84.8313 16.7612 89.5724 21.5047L114.257 46.189C114.769 46.7015 115.33 47.1338 115.903 47.5345V13.4871L106.747 4.33041Z" fill="#4B9EEA"/>
<path d="M128.094 48.5002V48.1092C127.174 47.5846 126.285 46.9773 125.5 46.1904C120.757 41.4469 120.757 33.7596 125.5 29.0161L128.094 26.4221V25.6789L115.901 13.4861V47.5335C119.525 50.0717 124.191 50.3777 128.094 48.5002Z" fill="#4B9EEA"/>
<path d="M128.094 48.5002V48.1092C127.174 47.5846 126.285 46.9773 125.5 46.1904C120.757 41.4469 120.757 33.7596 125.5 29.0161L128.094 26.4221V25.6789L115.901 13.4861V47.5335C119.525 50.0717 124.191 50.3777 128.094 48.5002Z" fill="#4B9EEA"/>
<path d="M125.501 29.0162C120.757 33.7597 120.757 41.447 125.501 46.1905C126.288 46.9774 127.174 47.5846 128.095 48.1093V26.4222L125.501 29.0162Z" fill="#4B9EEA"/>
<path d="M125.501 29.0162C120.757 33.7597 120.757 41.447 125.501 46.1905C126.288 46.9774 127.174 47.5846 128.095 48.1093V26.4222L125.501 29.0162Z" fill="#4B9EEA"/>
<path d="M115.221 208.353L90.5338 233.037C85.7928 237.781 85.7928 245.47 90.5338 250.211C95.2774 254.955 102.967 254.955 107.708 250.211L115.903 242.019V207.797C115.68 207.988 115.432 208.139 115.221 208.353Z" fill="#4B9EEA"/>
<path d="M115.221 208.353L90.5338 233.037C85.7928 237.781 85.7928 245.47 90.5338 250.211C95.2774 254.955 102.967 254.955 107.708 250.211L115.903 242.019V207.797C115.68 207.988 115.432 208.139 115.221 208.353Z" fill="#4B9EEA"/>
<path d="M122.96 225.527C118.216 220.784 118.216 213.094 122.96 208.353C124.329 206.981 125.957 206.055 127.676 205.477C123.71 204.141 119.231 204.919 115.901 207.794V242.019L127.676 230.244L122.96 225.527Z" fill="#4B9EEA"/>
<path d="M122.96 225.527C118.216 220.784 118.216 213.094 122.96 208.353C124.329 206.981 125.957 206.055 127.676 205.477C123.71 204.141 119.231 204.919 115.901 207.794V242.019L127.676 230.244L122.96 225.527Z" fill="#4B9EEA"/>
<path d="M127.677 230.245L128.095 230.663V229.825L127.677 230.245Z" fill="#4B9EEA"/>
<path d="M128.095 205.354C127.954 205.396 127.815 205.43 127.677 205.478C127.815 205.522 127.959 205.549 128.095 205.602V205.354Z" fill="#4B9EEA"/>
<path d="M128.096 205.601C127.96 205.55 127.817 205.524 127.678 205.478C125.959 206.056 124.331 206.981 122.961 208.353C118.218 213.094 118.218 220.784 122.961 225.528L127.678 230.244L128.096 229.827V205.601Z" fill="#4B9EEA"/>
<path d="M128.096 205.601C127.96 205.55 127.817 205.524 127.678 205.478C125.959 206.056 124.331 206.981 122.961 208.353C118.218 213.094 118.218 220.784 122.961 225.528L127.678 230.244L128.096 229.827V205.601Z" fill="#4B9EEA"/>
<path d="M14.7911 116.275H12.61C5.90398 116.275 0.46582 121.713 0.46582 128.419C0.46582 135.128 5.90398 140.563 12.61 140.563H13.9507L26.5151 127.999L14.7911 116.275Z" fill="#4B9EEA"/>
<path d="M14.7911 116.275H12.61C5.90398 116.275 0.46582 121.713 0.46582 128.419C0.46582 135.128 5.90398 140.563 12.61 140.563H13.9507L26.5151 127.999L14.7911 116.275Z" fill="#4B9EEA"/>
<path d="M99.5316 116.275H48.5164C50.627 119.887 50.7023 124.317 48.7714 127.999C50.8553 131.973 50.6173 136.823 47.999 140.563H98.7617L111.292 128.036L99.5316 116.275Z" fill="#4B9EEA"/>
<path d="M99.5316 116.275H48.5164C50.627 119.887 50.7023 124.317 48.7714 127.999C50.8553 131.973 50.6173 136.823 47.999 140.563H98.7617L111.292 128.036L99.5316 116.275Z" fill="#4B9EEA"/>
<path d="M4.79654 149.719C0.0554506 154.462 0.0554506 162.149 4.79654 166.893C9.54006 171.634 17.2298 171.634 21.9708 166.893L46.6575 142.209C47.1676 141.696 47.5999 141.138 48.0007 140.562H13.9533L4.79654 149.719Z" fill="#4B9EEA"/>
<path d="M4.79654 149.719C0.0554506 154.462 0.0554506 162.149 4.79654 166.893C9.54006 171.634 17.2298 171.634 21.9708 166.893L46.6575 142.209C47.1676 141.696 47.5999 141.138 48.0007 140.562H13.9533L4.79654 149.719Z" fill="#4B9EEA"/>
<path d="M48.7719 128C48.2157 129.061 47.5478 130.074 46.6564 130.965V130.968C41.9153 135.709 34.2256 135.709 29.4821 130.968L26.5165 128L13.9521 140.564H48.002C50.6203 136.824 50.8559 131.973 48.7719 128Z" fill="#4B9EEA"/>
<path d="M48.7719 128C48.2157 129.061 47.5478 130.074 46.6564 130.965V130.968C41.9153 135.709 34.2256 135.709 29.4821 130.968L26.5165 128L13.9521 140.564H48.002C50.6203 136.824 50.8559 131.973 48.7719 128Z" fill="#4B9EEA"/>
<path d="M46.6575 113.791L21.9708 89.1047C17.2298 84.3636 9.54006 84.3636 4.79654 89.1047C0.0554506 93.8482 0.0554506 101.538 4.79654 106.281L14.7912 116.274H48.518C48.0031 115.394 47.4129 114.547 46.6575 113.791Z" fill="#4B9EEA"/>
<path d="M46.6575 113.791L21.9708 89.1047C17.2298 84.3636 9.54006 84.3636 4.79654 89.1047C0.0554506 93.8482 0.0554506 101.538 4.79654 106.281L14.7912 116.274H48.518C48.0031 115.394 47.4129 114.547 46.6575 113.791Z" fill="#4B9EEA"/>
<path d="M29.4816 125.033C34.2251 120.29 41.9148 120.29 46.6559 125.033C47.5473 125.925 48.2152 126.94 48.7714 127.999C50.7048 124.317 50.627 119.887 48.5164 116.275H14.792L26.516 127.999L29.4816 125.033Z" fill="#4B9EEA"/>
<path d="M29.4816 125.033C34.2251 120.29 41.9148 120.29 46.6559 125.033C47.5473 125.925 48.2152 126.94 48.7714 127.999C50.7048 124.317 50.627 119.887 48.5164 116.275H14.792L26.516 127.999L29.4816 125.033Z" fill="#4B9EEA"/>
<path d="M29.4812 125.033L26.5156 127.999L29.4812 130.967C34.2247 135.708 41.9144 135.708 46.6555 130.967V130.964C47.5469 130.075 48.2148 129.06 48.771 127.999C48.2148 126.94 47.5469 125.924 46.6555 125.033C41.9144 120.289 34.2247 120.289 29.4812 125.033Z" fill="#4B9EEA"/>
<path d="M29.4812 125.033L26.5156 127.999L29.4812 130.967C34.2247 135.708 41.9144 135.708 46.6555 130.967V130.964C47.5469 130.075 48.2148 129.06 48.771 127.999C48.2148 126.94 47.5469 125.924 46.6555 125.033C41.9144 120.289 34.2247 120.289 29.4812 125.033Z" fill="#4B9EEA"/>
<path d="M40.6513 198.675L39.109 200.217C34.368 204.961 34.368 212.65 39.109 217.392H39.1115C43.8526 222.135 51.5422 222.135 56.2858 217.392L57.233 216.442V198.675H40.6513Z" fill="#4B9EEA"/>
<path d="M40.6513 198.675L39.109 200.217C34.368 204.961 34.368 212.65 39.109 217.392H39.1115C43.8526 222.135 51.5422 222.135 56.2858 217.392L57.233 216.442V198.675H40.6513Z" fill="#4B9EEA"/>
<path d="M98.7621 140.564L64.4985 174.827C68.545 175.891 71.7316 178.968 72.9679 182.939C77.2524 184.273 80.5143 187.872 81.3061 192.368L115.902 157.774V140.564H98.7621Z" fill="#4B9EEA"/>
<path d="M98.7621 140.564L64.4985 174.827C68.545 175.891 71.7316 178.968 72.9679 182.939C77.2524 184.273 80.5143 187.872 81.3061 192.368L115.902 157.774V140.564H98.7621Z" fill="#4B9EEA"/>
<path d="M128.094 144.837L123.819 140.562H115.901V157.773L128.094 145.58V144.837Z" fill="#4B9EEA"/>
<path d="M128.094 144.837L123.819 140.562H115.901V157.773L128.094 145.58V144.837Z" fill="#4B9EEA"/>
<path d="M115.903 132.646L111.293 128.036L98.7622 140.564H115.903V132.646Z" fill="#4B9EEA"/>
<path d="M115.903 132.646L111.293 128.036L98.7622 140.564H115.903V132.646Z" fill="#4B9EEA"/>
<path d="M115.901 140.563H123.819L115.901 132.645V140.563Z" fill="#4B9EEA"/>
<path d="M115.901 140.563H123.819L115.901 132.645V140.563Z" fill="#4B9EEA"/>
<path d="M57.2324 229.391C57.2324 236.099 62.6682 241.535 69.3766 241.535C76.0826 241.535 81.5208 236.099 81.5208 229.391V194.481C81.5208 193.758 81.4285 193.058 81.307 192.368L57.2324 216.443V229.391Z" fill="#4B9EEA"/>
<path d="M57.2324 229.391C57.2324 236.099 62.6682 241.535 69.3766 241.535C76.0826 241.535 81.5208 236.099 81.5208 229.391V194.481C81.5208 193.758 81.4285 193.058 81.307 192.368L57.2324 216.443V229.391Z" fill="#4B9EEA"/>
<path d="M72.9689 182.94C73.3235 184.081 73.5712 185.272 73.5712 186.532C73.5712 193.238 68.133 198.676 61.427 198.676H57.2324V216.443L81.307 192.369C80.5152 187.87 77.2533 184.273 72.9689 182.94Z" fill="#4B9EEA"/>
<path d="M72.9689 182.94C73.3235 184.081 73.5712 185.272 73.5712 186.532C73.5712 193.238 68.133 198.676 61.427 198.676H57.2324V216.443L81.307 192.369C80.5152 187.87 77.2533 184.273 72.9689 182.94Z" fill="#4B9EEA"/>
<path d="M61.4269 174.387H26.5148C19.8088 174.387 14.3706 179.825 14.3706 186.531C14.3706 193.239 19.8088 198.675 26.5148 198.675H40.6506L64.4993 174.829C63.5108 174.569 62.4931 174.387 61.4269 174.387Z" fill="#4B9EEA"/>
<path d="M61.4269 174.387H26.5148C19.8088 174.387 14.3706 179.825 14.3706 186.531C14.3706 193.239 19.8088 198.675 26.5148 198.675H40.6506L64.4993 174.829C63.5108 174.569 62.4931 174.387 61.4269 174.387Z" fill="#4B9EEA"/>
<path d="M57.2325 194.482C57.2325 187.773 62.6683 182.337 69.3767 182.337C70.6373 182.337 71.8274 182.585 72.969 182.94C71.7327 178.966 68.5461 175.891 64.4996 174.827L40.6509 198.676H57.2325V194.482Z" fill="#4B9EEA"/>
<path d="M57.2325 194.482C57.2325 187.773 62.6683 182.337 69.3767 182.337C70.6373 182.337 71.8274 182.585 72.969 182.94C71.7327 178.966 68.5461 175.891 64.4996 174.827L40.6509 198.676H57.2325V194.482Z" fill="#4B9EEA"/>
<path d="M57.2324 194.482V198.677H61.427C68.133 198.677 73.5712 193.238 73.5712 186.532C73.5712 185.272 73.3235 184.082 72.9688 182.94C71.8273 182.586 70.6372 182.338 69.3766 182.338C62.6682 182.338 57.2324 187.774 57.2324 194.482Z" fill="#4B9EEA"/>
<path d="M57.2324 194.482V198.677H61.427C68.133 198.677 73.5712 193.238 73.5712 186.532C73.5712 185.272 73.3235 184.082 72.9688 182.94C71.8273 182.586 70.6372 182.338 69.3766 182.338C62.6682 182.338 57.2324 187.774 57.2324 194.482Z" fill="#4B9EEA"/>
<path d="M115.901 98.2967L81.6377 64.0331C80.5763 68.0795 77.4966 71.2637 73.5254 72.5024C72.1896 76.7869 68.5925 80.0488 64.0967 80.8406L99.531 116.275H115.901V98.2967Z" fill="#4B9EEA"/>
<path d="M115.901 98.2967L81.6377 64.0331C80.5763 68.0795 77.4966 71.2637 73.5254 72.5024C72.1896 76.7869 68.5925 80.0488 64.0967 80.8406L99.531 116.275H115.901V98.2967Z" fill="#4B9EEA"/>
<path d="M57.7908 40.1843L56.2485 38.642C51.5074 33.9009 43.8178 33.9009 39.0742 38.642C34.3307 43.3855 34.3307 51.0728 39.0742 55.8187L40.0239 56.766H57.7908V40.1843Z" fill="#4B9EEA"/>
<path d="M57.7908 40.1843L56.2485 38.642C51.5074 33.9009 43.8178 33.9009 39.0742 38.642C34.3307 43.3855 34.3307 51.0728 39.0742 55.8187L40.0239 56.766H57.7908V40.1843Z" fill="#4B9EEA"/>
<path d="M123.051 116.275L128.096 111.23V110.489L115.903 98.2967V116.275H123.051Z" fill="#4B9EEA"/>
<path d="M123.051 116.275L128.096 111.23V110.489L115.903 98.2967V116.275H123.051Z" fill="#4B9EEA"/>
<path d="M115.904 123.424V116.276H99.5332L111.294 128.034L115.904 123.424Z" fill="#4B9EEA"/>
<path d="M115.904 123.424V116.276H99.5332L111.294 128.034L115.904 123.424Z" fill="#4B9EEA"/>
<path d="M115.901 116.275V123.423L123.049 116.275H115.901Z" fill="#4B9EEA"/>
<path d="M115.901 116.275V123.423L123.049 116.275H115.901Z" fill="#4B9EEA"/>
<path d="M128.094 111.231L123.05 116.275H128.094V111.231Z" fill="#4B9EEA"/>
<path d="M123.82 140.563L128.095 144.838V140.563H123.82Z" fill="#4B9EEA"/>
<path d="M111.292 128.035L115.902 132.645V123.425L111.292 128.035Z" fill="#4B9EEA"/>
<path d="M111.292 128.035L115.902 132.645V123.425L111.292 128.035Z" fill="#4B9EEA"/>
<path d="M125.667 116.275H120.623L113.475 123.423V132.645L121.393 140.563H125.667V116.275Z" fill="#4B9EEA"/>
<path d="M125.667 116.275H120.623L113.475 123.423V132.645L121.393 140.563H125.667V116.275Z" fill="#4B9EEA"/>
<path d="M27.0739 56.765C20.3679 56.765 14.9297 62.2031 14.9297 68.9092C14.9297 75.6176 20.3679 81.0533 27.0739 81.0533H61.986C62.7073 81.0533 63.4068 80.961 64.0966 80.842L40.022 56.765H27.0739Z" fill="#4B9EEA"/>
<path d="M27.0739 56.765C20.3679 56.765 14.9297 62.2031 14.9297 68.9092C14.9297 75.6176 20.3679 81.0533 27.0739 81.0533H61.986C62.7073 81.0533 63.4068 80.961 64.0966 80.842L40.022 56.765H27.0739Z" fill="#4B9EEA"/>
<path d="M73.5273 72.5023C72.3857 72.8569 71.1956 73.1046 69.935 73.1046C63.2266 73.1046 57.7909 67.6664 57.7909 60.9604V56.7658H40.0239L64.0985 80.8405C68.5943 80.0487 72.1914 76.7867 73.5273 72.5023Z" fill="#4B9EEA"/>
<path d="M73.5273 72.5023C72.3857 72.8569 71.1956 73.1046 69.935 73.1046C63.2266 73.1046 57.7909 67.6664 57.7909 60.9604V56.7658H40.0239L64.0985 80.8405C68.5943 80.0487 72.1914 76.7867 73.5273 72.5023Z" fill="#4B9EEA"/>
<path d="M82.0799 60.9593V26.0496C82.0799 19.3412 76.6417 13.9054 69.9357 13.9054C63.2272 13.9054 57.7915 19.3412 57.7915 26.0496V40.183L81.6378 64.0317C81.8977 63.0456 82.0799 62.0279 82.0799 60.9593Z" fill="#4B9EEA"/>
<path d="M82.0799 60.9593V26.0496C82.0799 19.3412 76.6417 13.9054 69.9357 13.9054C63.2272 13.9054 57.7915 19.3412 57.7915 26.0496V40.183L81.6378 64.0317C81.8977 63.0456 82.0799 62.0279 82.0799 60.9593Z" fill="#4B9EEA"/>
<path d="M61.9861 56.7644C68.6921 56.7644 74.1303 62.2026 74.1303 68.9086C74.1303 70.1692 73.8825 71.3593 73.5279 72.5009C77.4991 71.2646 80.5764 68.0779 81.6378 64.0315L57.7915 40.1828V56.7644H61.9861Z" fill="#4B9EEA"/>
<path d="M61.9861 56.7644C68.6921 56.7644 74.1303 62.2026 74.1303 68.9086C74.1303 70.1692 73.8825 71.3593 73.5279 72.5009C77.4991 71.2646 80.5764 68.0779 81.6378 64.0315L57.7915 40.1828V56.7644H61.9861Z" fill="#4B9EEA"/>
<path d="M61.9861 56.765H57.7915V60.9596C57.7915 67.668 63.2272 73.1038 69.9357 73.1038C71.1962 73.1038 72.3864 72.8584 73.5279 72.5014C73.8825 71.3599 74.1303 70.1697 74.1303 68.9092C74.1303 62.2031 68.6921 56.765 61.9861 56.765Z" fill="#4B9EEA"/>
<path d="M61.9861 56.765H57.7915V60.9596C57.7915 67.668 63.2272 73.1038 69.9357 73.1038C71.1962 73.1038 72.3864 72.8584 73.5279 72.5014C73.8825 71.3599 74.1303 70.1697 74.1303 68.9092C74.1303 62.2031 68.6921 56.765 61.9861 56.765Z" fill="#4B9EEA"/>
<path d="M128.096 145.58V205.353C132.23 204.127 136.872 205.089 140.136 208.353L140.192 208.409V156.935L128.468 145.211L128.096 145.58Z" fill="#4B9EEA"/>
<path d="M128.096 145.58V205.353C132.23 204.127 136.872 205.089 140.136 208.353L140.192 208.409V156.935L128.468 145.211L128.096 145.58Z" fill="#4B9EEA"/>
<path d="M128.096 145.58V205.353C132.23 204.127 136.872 205.089 140.136 208.353L140.192 208.409V156.935L128.468 145.211L128.096 145.58Z" fill="#4B9EEA"/>
<path d="M128.096 145.58V205.353C132.23 204.127 136.872 205.089 140.136 208.353L140.192 208.409V156.935L128.468 145.211L128.096 145.58Z" fill="#4B9EEA"/>
<path d="M140.192 243.855V242.76L128.096 230.662V255.994C134.778 255.968 140.192 250.547 140.192 243.855Z" fill="#4B9EEA"/>
<path d="M140.192 243.855V242.76L128.096 230.662V255.994C134.778 255.968 140.192 250.547 140.192 243.855Z" fill="#4B9EEA"/>
<path d="M140.192 243.855V242.76L128.096 230.662V255.994C134.778 255.968 140.192 250.547 140.192 243.855Z" fill="#4B9EEA"/>
<path d="M140.192 243.855V242.76L128.096 230.662V255.994C134.778 255.968 140.192 250.547 140.192 243.855Z" fill="#4B9EEA"/>
<path d="M128.468 48.3041C128.344 48.3697 128.222 48.4401 128.096 48.5008V110.49L128.468 110.859L140.194 99.1348V48.0515C136.58 50.1622 132.152 50.2375 128.468 48.3041Z" fill="#4B9EEA"/>
<path d="M128.468 48.3041C128.344 48.3697 128.222 48.4401 128.096 48.5008V110.49L128.468 110.859L140.194 99.1348V48.0515C136.58 50.1622 132.152 50.2375 128.468 48.3041Z" fill="#4B9EEA"/>
<path d="M128.468 48.3041C128.344 48.3697 128.222 48.4401 128.096 48.5008V110.49L128.468 110.859L140.194 99.1348V48.0515C136.58 50.1622 132.152 50.2375 128.468 48.3041Z" fill="#4B9EEA"/>
<path d="M128.468 48.3041C128.344 48.3697 128.222 48.4401 128.096 48.5008V110.49L128.468 110.859L140.194 99.1348V48.0515C136.58 50.1622 132.152 50.2375 128.468 48.3041Z" fill="#4B9EEA"/>
<path d="M128.468 26.0496L140.194 14.3231V12.1445C140.194 5.45303 134.78 0.0318718 128.096 0.00515456V25.6779L128.468 26.0496Z" fill="#4B9EEA"/>
<path d="M128.468 26.0496L140.194 14.3231V12.1445C140.194 5.45303 134.78 0.0318718 128.096 0.00515456V25.6779L128.468 26.0496Z" fill="#4B9EEA"/>
<path d="M128.468 26.0496L140.194 14.3231V12.1445C140.194 5.45303 134.78 0.0318718 128.096 0.00515456V25.6779L128.468 26.0496Z" fill="#4B9EEA"/>
<path d="M128.468 26.0496L140.194 14.3231V12.1445C140.194 5.45303 134.78 0.0318718 128.096 0.00515456V25.6779L128.468 26.0496Z" fill="#4B9EEA"/>
<path d="M128.096 25.6787V26.4219L128.468 26.0503L128.096 25.6787Z" fill="#4B9EEA"/>
<g opacity="0.399994">
<g opacity="0.399994">
<path opacity="0.399994" d="M128.093 25.6791V26.4224L128.464 26.0508L128.093 25.6791Z" fill="#4B9EEA"/>
</g>
</g>
<path d="M128.096 48.1086V48.4996C128.222 48.4389 128.344 48.3685 128.468 48.3053C128.344 48.2397 128.218 48.179 128.096 48.1086Z" fill="#4B9EEA"/>
<g opacity="0.399994">
<g opacity="0.399994">
<path opacity="0.399994" d="M128.093 48.1086V48.4996C128.219 48.4389 128.341 48.3685 128.464 48.3053C128.341 48.2397 128.214 48.179 128.093 48.1086Z" fill="#4B9EEA"/>
</g>
</g>
<path d="M142.676 46.1896L167.36 21.5029C172.103 16.7618 172.103 9.07209 167.36 4.331C162.619 -0.412518 154.929 -0.412518 150.186 4.331L140.193 14.3232V48.05C141.073 47.5351 141.918 46.9449 142.676 46.1896Z" fill="#4B9EEA"/>
<path d="M142.676 46.1896L167.36 21.5029C172.103 16.7618 172.103 9.07209 167.36 4.331C162.619 -0.412518 154.929 -0.412518 150.186 4.331L140.193 14.3232V48.05C141.073 47.5351 141.918 46.9449 142.676 46.1896Z" fill="#4B9EEA"/>
<path d="M142.676 46.1896L167.36 21.5029C172.103 16.7618 172.103 9.07209 167.36 4.331C162.619 -0.412518 154.929 -0.412518 150.186 4.331L140.193 14.3232V48.05C141.073 47.5351 141.918 46.9449 142.676 46.1896Z" fill="#4B9EEA"/>
<path d="M142.676 46.1896L167.36 21.5029C172.103 16.7618 172.103 9.07209 167.36 4.331C162.619 -0.412518 154.929 -0.412518 150.186 4.331L140.193 14.3232V48.05C141.073 47.5351 141.918 46.9449 142.676 46.1896Z" fill="#4B9EEA"/>
<path d="M131.434 29.016C136.175 33.7595 136.175 41.4468 131.434 46.1903C130.542 47.0792 129.527 47.7472 128.468 48.3034C132.15 50.2392 136.581 50.1614 140.192 48.0508V14.324L128.468 26.0504L131.434 29.016Z" fill="#4B9EEA"/>
<path d="M131.434 29.016C136.175 33.7595 136.175 41.4468 131.434 46.1903C130.542 47.0792 129.527 47.7472 128.468 48.3034C132.15 50.2392 136.581 50.1614 140.192 48.0508V14.324L128.468 26.0504L131.434 29.016Z" fill="#4B9EEA"/>
<path d="M131.434 29.016C136.175 33.7595 136.175 41.4468 131.434 46.1903C130.542 47.0792 129.527 47.7472 128.468 48.3034C132.15 50.2392 136.581 50.1614 140.192 48.0508V14.324L128.468 26.0504L131.434 29.016Z" fill="#4B9EEA"/>
<path d="M131.434 29.016C136.175 33.7595 136.175 41.4468 131.434 46.1903C130.542 47.0792 129.527 47.7472 128.468 48.3034C132.15 50.2392 136.581 50.1614 140.192 48.0508V14.324L128.468 26.0504L131.434 29.016Z" fill="#4B9EEA"/>
<path d="M131.433 46.1899C136.175 41.4464 136.175 33.7591 131.433 29.0156L128.468 26.05L128.096 26.4216V48.1087C128.218 48.1791 128.344 48.2398 128.468 48.3054C129.527 47.7492 130.542 47.0813 131.433 46.1899Z" fill="#4B9EEA"/>
<path d="M131.433 46.1899C136.175 41.4464 136.175 33.7591 131.433 29.0156L128.468 26.05L128.096 26.4216V48.1087C128.218 48.1791 128.344 48.2398 128.468 48.3054C129.527 47.7492 130.542 47.0813 131.433 46.1899Z" fill="#4B9EEA"/>
<g opacity="0.399994">
<g opacity="0.399994">
<path opacity="0.399994" d="M131.43 46.1899C136.171 41.4464 136.171 33.7591 131.43 29.0156L128.464 26.05L128.093 26.4216V48.1087C128.214 48.1791 128.341 48.2398 128.464 48.3054C129.523 47.7492 130.539 47.0813 131.43 46.1899Z" fill="#4B9EEA"/>
</g>
<g opacity="0.399994">
<path opacity="0.399994" d="M131.43 46.1899C136.171 41.4464 136.171 33.7591 131.43 29.0156L128.464 26.05L128.093 26.4216V48.1087C128.214 48.1791 128.341 48.2398 128.464 48.3054C129.523 47.7492 130.539 47.0813 131.43 46.1899Z" fill="#4B9EEA"/>
</g>
</g>
<path d="M147.645 250.212C152.389 254.955 160.078 254.955 164.819 250.212C169.56 245.471 169.56 237.781 164.819 233.038L140.193 208.409V242.76L147.645 250.212Z" fill="#4B9EEA"/>
<path d="M147.645 250.212C152.389 254.955 160.078 254.955 164.819 250.212C169.56 245.471 169.56 237.781 164.819 233.038L140.193 208.409V242.76L147.645 250.212Z" fill="#4B9EEA"/>
<path d="M147.645 250.212C152.389 254.955 160.078 254.955 164.819 250.212C169.56 245.471 169.56 237.781 164.819 233.038L140.193 208.409V242.76L147.645 250.212Z" fill="#4B9EEA"/>
<path d="M147.645 250.212C152.389 254.955 160.078 254.955 164.819 250.212C169.56 245.471 169.56 237.781 164.819 233.038L140.193 208.409V242.76L147.645 250.212Z" fill="#4B9EEA"/>
<path d="M128.096 205.355V205.602C129.663 206.193 131.135 207.094 132.395 208.352C137.139 213.095 137.139 220.785 132.395 225.529L128.096 229.825V230.663L140.192 242.759V208.41L140.136 208.352C136.872 205.09 132.23 204.128 128.096 205.355Z" fill="#4B9EEA"/>
<path d="M128.096 205.355V205.602C129.663 206.193 131.135 207.094 132.395 208.352C137.139 213.095 137.139 220.785 132.395 225.529L128.096 229.825V230.663L140.192 242.759V208.41L140.136 208.352C136.872 205.09 132.23 204.128 128.096 205.355Z" fill="#4B9EEA"/>
<path d="M128.096 205.355V205.602C129.663 206.193 131.135 207.094 132.395 208.352C137.139 213.095 137.139 220.785 132.395 225.529L128.096 229.825V230.663L140.192 242.759V208.41L140.136 208.352C136.872 205.09 132.23 204.128 128.096 205.355Z" fill="#4B9EEA"/>
<path d="M128.096 205.355V205.602C129.663 206.193 131.135 207.094 132.395 208.352C137.139 213.095 137.139 220.785 132.395 225.529L128.096 229.825V230.663L140.192 242.759V208.41L140.136 208.352C136.872 205.09 132.23 204.128 128.096 205.355Z" fill="#4B9EEA"/>
<path d="M132.395 225.528C137.139 220.784 137.139 213.095 132.395 208.354C131.135 207.093 129.663 206.192 128.096 205.602V229.827L132.395 225.528Z" fill="#4B9EEA"/>
<path d="M132.395 225.528C137.139 220.784 137.139 213.095 132.395 208.354C131.135 207.093 129.663 206.192 128.096 205.602V229.827L132.395 225.528Z" fill="#4B9EEA"/>
<path d="M132.395 225.528C137.139 220.784 137.139 213.095 132.395 208.354C131.135 207.093 129.663 206.192 128.096 205.602V229.827L132.395 225.528Z" fill="#4B9EEA"/>
<path d="M132.395 225.528C137.139 220.784 137.139 213.095 132.395 208.354C131.135 207.093 129.663 206.192 128.096 205.602V229.827L132.395 225.528Z" fill="#4B9EEA"/>
<path d="M158.168 140.563H208.26C205.382 137.236 204.61 132.757 205.943 128.788C204.52 124.555 205.445 119.705 208.819 116.331L208.875 116.275H157.401L145.64 128.036L158.168 140.563Z" fill="#4B9EEA"/>
<path d="M158.168 140.563H208.26C205.382 137.236 204.61 132.757 205.943 128.788C204.52 124.555 205.445 119.705 208.819 116.331L208.875 116.275H157.401L145.64 128.036L158.168 140.563Z" fill="#4B9EEA"/>
<path d="M158.168 140.563H208.26C205.382 137.236 204.61 132.757 205.943 128.788C204.52 124.555 205.445 119.705 208.819 116.331L208.875 116.275H157.401L145.64 128.036L158.168 140.563Z" fill="#4B9EEA"/>
<path d="M158.168 140.563H208.26C205.382 137.236 204.61 132.757 205.943 128.788C204.52 124.555 205.445 119.705 208.819 116.331L208.875 116.275H157.401L145.64 128.036L158.168 140.563Z" fill="#4B9EEA"/>
<path d="M242.485 140.563H244.322C251.03 140.563 256.466 135.128 256.466 128.419C256.466 121.713 251.03 116.275 244.322 116.275H243.226L230.71 128.788L242.485 140.563Z" fill="#4B9EEA"/>
<path d="M242.485 140.563H244.322C251.03 140.563 256.466 135.128 256.466 128.419C256.466 121.713 251.03 116.275 244.322 116.275H243.226L230.71 128.788L242.485 140.563Z" fill="#4B9EEA"/>
<path d="M242.485 140.563H244.322C251.03 140.563 256.466 135.128 256.466 128.419C256.466 121.713 251.03 116.275 244.322 116.275H243.226L230.71 128.788L242.485 140.563Z" fill="#4B9EEA"/>
<path d="M242.485 140.563H244.322C251.03 140.563 256.466 135.128 256.466 128.419C256.466 121.713 251.03 116.275 244.322 116.275H243.226L230.71 128.788L242.485 140.563Z" fill="#4B9EEA"/>
<path d="M208.818 141.246L233.505 165.931C238.246 170.674 245.935 170.674 250.676 165.931C255.42 161.189 255.42 153.5 250.676 148.756L242.484 140.564H208.262C208.456 140.787 208.607 141.033 208.818 141.246Z" fill="#4B9EEA"/>
<path d="M208.818 141.246L233.505 165.931C238.246 170.674 245.935 170.674 250.676 165.931C255.42 161.189 255.42 153.5 250.676 148.756L242.484 140.564H208.262C208.456 140.787 208.607 141.033 208.818 141.246Z" fill="#4B9EEA"/>
<path d="M208.818 141.246L233.505 165.931C238.246 170.674 245.935 170.674 250.676 165.931C255.42 161.189 255.42 153.5 250.676 148.756L242.484 140.564H208.262C208.456 140.787 208.607 141.033 208.818 141.246Z" fill="#4B9EEA"/>
<path d="M208.818 141.246L233.505 165.931C238.246 170.674 245.935 170.674 250.676 165.931C255.42 161.189 255.42 153.5 250.676 148.756L242.484 140.564H208.262C208.456 140.787 208.607 141.033 208.818 141.246Z" fill="#4B9EEA"/>
<path d="M225.992 133.507C221.249 138.248 213.562 138.248 208.818 133.507C207.448 132.137 206.52 130.51 205.942 128.79C204.609 132.757 205.384 137.235 208.259 140.563H242.484L230.709 128.79L225.992 133.507Z" fill="#4B9EEA"/>
<path d="M225.992 133.507C221.249 138.248 213.562 138.248 208.818 133.507C207.448 132.137 206.52 130.51 205.942 128.79C204.609 132.757 205.384 137.235 208.259 140.563H242.484L230.709 128.79L225.992 133.507Z" fill="#4B9EEA"/>
<path d="M225.992 133.507C221.249 138.248 213.562 138.248 208.818 133.507C207.448 132.137 206.52 130.51 205.942 128.79C204.609 132.757 205.384 137.235 208.259 140.563H242.484L230.709 128.79L225.992 133.507Z" fill="#4B9EEA"/>
<path d="M225.992 133.507C221.249 138.248 213.562 138.248 208.818 133.507C207.448 132.137 206.52 130.51 205.942 128.79C204.609 132.757 205.384 137.235 208.259 140.563H242.484L230.709 128.79L225.992 133.507Z" fill="#4B9EEA"/>
<path d="M250.678 108.821C255.421 104.078 255.421 96.3882 250.678 91.6471C245.937 86.9036 238.247 86.9036 233.506 91.6471L208.875 116.276H243.226L250.678 108.821Z" fill="#4B9EEA"/>
<path d="M250.678 108.821C255.421 104.078 255.421 96.3882 250.678 91.6471C245.937 86.9036 238.247 86.9036 233.506 91.6471L208.875 116.276H243.226L250.678 108.821Z" fill="#4B9EEA"/>
<path d="M250.678 108.821C255.421 104.078 255.421 96.3882 250.678 91.6471C245.937 86.9036 238.247 86.9036 233.506 91.6471L208.875 116.276H243.226L250.678 108.821Z" fill="#4B9EEA"/>
<path d="M250.678 108.821C255.421 104.078 255.421 96.3882 250.678 91.6471C245.937 86.9036 238.247 86.9036 233.506 91.6471L208.875 116.276H243.226L250.678 108.821Z" fill="#4B9EEA"/>
<path d="M205.944 128.789C206.522 127.07 207.45 125.442 208.82 124.073C213.564 119.329 221.251 119.329 225.994 124.073L230.711 128.789L243.227 116.276H208.876L208.82 116.332C205.447 119.705 204.521 124.556 205.944 128.789Z" fill="#4B9EEA"/>
<path d="M205.944 128.789C206.522 127.07 207.45 125.442 208.82 124.073C213.564 119.329 221.251 119.329 225.994 124.073L230.711 128.789L243.227 116.276H208.876L208.82 116.332C205.447 119.705 204.521 124.556 205.944 128.789Z" fill="#4B9EEA"/>
<path d="M205.944 128.789C206.522 127.07 207.45 125.442 208.82 124.073C213.564 119.329 221.251 119.329 225.994 124.073L230.711 128.789L243.227 116.276H208.876L208.82 116.332C205.447 119.705 204.521 124.556 205.944 128.789Z" fill="#4B9EEA"/>
<path d="M205.944 128.789C206.522 127.07 207.45 125.442 208.82 124.073C213.564 119.329 221.251 119.329 225.994 124.073L230.711 128.789L243.227 116.276H208.876L208.82 116.332C205.447 119.705 204.521 124.556 205.944 128.789Z" fill="#4B9EEA"/>
<path d="M225.993 133.507L230.71 128.79L225.993 124.071C221.249 119.33 213.562 119.33 208.819 124.071C207.449 125.443 206.521 127.071 205.943 128.79C206.521 130.51 207.449 132.137 208.819 133.507C213.562 138.248 221.249 138.248 225.993 133.507Z" fill="#4B9EEA"/>
<path d="M225.993 133.507L230.71 128.79L225.993 124.071C221.249 119.33 213.562 119.33 208.819 124.071C207.449 125.443 206.521 127.071 205.943 128.79C206.521 130.51 207.449 132.137 208.819 133.507C213.562 138.248 221.249 138.248 225.993 133.507Z" fill="#4B9EEA"/>
<path d="M225.993 133.507L230.71 128.79L225.993 124.071C221.249 119.33 213.562 119.33 208.819 124.071C207.449 125.443 206.521 127.071 205.943 128.79C206.521 130.51 207.449 132.137 208.819 133.507C213.562 138.248 221.249 138.248 225.993 133.507Z" fill="#4B9EEA"/>
<path d="M225.993 133.507L230.71 128.79L225.993 124.071C221.249 119.33 213.562 119.33 208.819 124.071C207.449 125.443 206.521 127.071 205.943 128.79C206.521 130.51 207.449 132.137 208.819 133.507C213.562 138.248 221.249 138.248 225.993 133.507Z" fill="#4B9EEA"/>
<path d="M218.827 54.847L220.126 53.5476C224.867 48.8065 224.867 41.1168 220.126 36.3733C215.385 31.6298 207.696 31.6298 202.952 36.3733L202.177 37.1481V54.847H218.827Z" fill="#4B9EEA"/>
<path d="M218.827 54.847L220.126 53.5476C224.867 48.8065 224.867 41.1168 220.126 36.3733C215.385 31.6298 207.696 31.6298 202.952 36.3733L202.177 37.1481V54.847H218.827Z" fill="#4B9EEA"/>
<path d="M218.827 54.847L220.126 53.5476C224.867 48.8065 224.867 41.1168 220.126 36.3733C215.385 31.6298 207.696 31.6298 202.952 36.3733L202.177 37.1481V54.847H218.827Z" fill="#4B9EEA"/>
<path d="M218.827 54.847L220.126 53.5476C224.867 48.8065 224.867 41.1168 220.126 36.3733C215.385 31.6298 207.696 31.6298 202.952 36.3733L202.177 37.1481V54.847H218.827Z" fill="#4B9EEA"/>
<path d="M157.4 116.275L194.629 79.0462C190.24 78.728 186.524 76.1073 184.666 72.3596C180.663 70.3752 177.889 66.2875 177.889 61.5197V61.4371L140.191 99.1351V116.275H157.4Z" fill="#4B9EEA"/>
<path d="M157.4 116.275L194.629 79.0462C190.24 78.728 186.524 76.1073 184.666 72.3596C180.663 70.3752 177.889 66.2875 177.889 61.5197V61.4371L140.191 99.1351V116.275H157.4Z" fill="#4B9EEA"/>
<path d="M157.4 116.275L194.629 79.0462C190.24 78.728 186.524 76.1073 184.666 72.3596C180.663 70.3752 177.889 66.2875 177.889 61.5197V61.4371L140.191 99.1351V116.275H157.4Z" fill="#4B9EEA"/>
<path d="M157.4 116.275L194.629 79.0462C190.24 78.728 186.524 76.1073 184.666 72.3596C180.663 70.3752 177.889 66.2875 177.889 61.5197V61.4371L140.191 99.1351V116.275H157.4Z" fill="#4B9EEA"/>
<path d="M133.879 116.275H140.192V99.1346L128.465 110.861L133.879 116.275Z" fill="#4B9EEA"/>
<path d="M133.879 116.275H140.192V99.1346L128.465 110.861L133.879 116.275Z" fill="#4B9EEA"/>
<path d="M133.879 116.275H140.192V99.1346L128.465 110.861L133.879 116.275Z" fill="#4B9EEA"/>
<path d="M133.879 116.275H140.192V99.1346L128.465 110.861L133.879 116.275Z" fill="#4B9EEA"/>
<path d="M128.096 144.838V145.581L128.468 145.209L128.096 144.838Z" fill="#4B9EEA"/>
<g opacity="0.399994">
<g opacity="0.399994">
<path opacity="0.399994" d="M128.093 144.838V145.582L128.464 145.21L128.093 144.838Z" fill="#4B9EEA"/>
</g>
</g>
<path d="M140.191 122.586L145.639 128.036L157.4 116.276H140.191V122.586Z" fill="#4B9EEA"/>
<path d="M140.191 122.586L145.639 128.036L157.4 116.276H140.191V122.586Z" fill="#4B9EEA"/>
<path d="M140.191 122.586L145.639 128.036L157.4 116.276H140.191V122.586Z" fill="#4B9EEA"/>
<path d="M140.191 122.586L145.639 128.036L157.4 116.276H140.191V122.586Z" fill="#4B9EEA"/>
<path d="M140.191 116.275H133.878L140.191 122.585V116.275Z" fill="#4B9EEA"/>
<path d="M140.191 116.275H133.878L140.191 122.585V116.275Z" fill="#4B9EEA"/>
<path d="M140.191 116.275H133.878L140.191 122.585V116.275Z" fill="#4B9EEA"/>
<path d="M140.191 116.275H133.878L140.191 122.585V116.275Z" fill="#4B9EEA"/>
<path d="M195.507 79.1356H230.417C237.123 79.1356 242.561 73.6975 242.561 66.9914C242.561 60.283 237.123 54.8473 230.417 54.8473H218.829L194.63 79.0458C194.924 79.0676 195.206 79.1356 195.507 79.1356Z" fill="#4B9EEA"/>
<path d="M195.507 79.1356H230.417C237.123 79.1356 242.561 73.6975 242.561 66.9914C242.561 60.283 237.123 54.8473 230.417 54.8473H218.829L194.63 79.0458C194.924 79.0676 195.206 79.1356 195.507 79.1356Z" fill="#4B9EEA"/>
<path d="M195.507 79.1356H230.417C237.123 79.1356 242.561 73.6975 242.561 66.9914C242.561 60.283 237.123 54.8473 230.417 54.8473H218.829L194.63 79.0458C194.924 79.0676 195.206 79.1356 195.507 79.1356Z" fill="#4B9EEA"/>
<path d="M195.507 79.1356H230.417C237.123 79.1356 242.561 73.6975 242.561 66.9914C242.561 60.283 237.123 54.8473 230.417 54.8473H218.829L194.63 79.0458C194.924 79.0676 195.206 79.1356 195.507 79.1356Z" fill="#4B9EEA"/>
<path d="M202.176 61.5182C202.176 68.2242 196.74 73.6624 190.032 73.6624C188.094 73.6624 186.289 73.1669 184.664 72.3605C186.525 76.1082 190.241 78.7265 194.63 79.0471L218.826 54.8462H202.176V61.5182Z" fill="#4B9EEA"/>
<path d="M202.176 61.5182C202.176 68.2242 196.74 73.6624 190.032 73.6624C188.094 73.6624 186.289 73.1669 184.664 72.3605C186.525 76.1082 190.241 78.7265 194.63 79.0471L218.826 54.8462H202.176V61.5182Z" fill="#4B9EEA"/>
<path d="M202.176 61.5182C202.176 68.2242 196.74 73.6624 190.032 73.6624C188.094 73.6624 186.289 73.1669 184.664 72.3605C186.525 76.1082 190.241 78.7265 194.63 79.0471L218.826 54.8462H202.176V61.5182Z" fill="#4B9EEA"/>
<path d="M202.176 61.5182C202.176 68.2242 196.74 73.6624 190.032 73.6624C188.094 73.6624 186.289 73.1669 184.664 72.3605C186.525 76.1082 190.241 78.7265 194.63 79.0471L218.826 54.8462H202.176V61.5182Z" fill="#4B9EEA"/>
<path d="M202.178 26.6071C202.178 19.9011 196.743 14.463 190.034 14.463C183.328 14.463 177.89 19.9011 177.89 26.6071V61.4366L202.178 37.1483V26.6071Z" fill="#4B9EEA"/>
<path d="M202.178 26.6071C202.178 19.9011 196.743 14.463 190.034 14.463C183.328 14.463 177.89 19.9011 177.89 26.6071V61.4366L202.178 37.1483V26.6071Z" fill="#4B9EEA"/>
<path d="M202.178 26.6071C202.178 19.9011 196.743 14.463 190.034 14.463C183.328 14.463 177.89 19.9011 177.89 26.6071V61.4366L202.178 37.1483V26.6071Z" fill="#4B9EEA"/>
<path d="M202.178 26.6071C202.178 19.9011 196.743 14.463 190.034 14.463C183.328 14.463 177.89 19.9011 177.89 26.6071V61.4366L202.178 37.1483V26.6071Z" fill="#4B9EEA"/>
<path d="M184.667 72.36C183.86 70.7351 183.365 68.928 183.365 66.9923C183.365 60.2838 188.8 54.8481 195.509 54.8481H202.178V37.1492L177.89 61.4375V61.5177C177.89 66.2879 180.666 70.3732 184.667 72.36Z" fill="#4B9EEA"/>
<path d="M184.667 72.36C183.86 70.7351 183.365 68.928 183.365 66.9923C183.365 60.2838 188.8 54.8481 195.509 54.8481H202.178V37.1492L177.89 61.4375V61.5177C177.89 66.2879 180.666 70.3732 184.667 72.36Z" fill="#4B9EEA"/>
<path d="M184.667 72.36C183.86 70.7351 183.365 68.928 183.365 66.9923C183.365 60.2838 188.8 54.8481 195.509 54.8481H202.178V37.1492L177.89 61.4375V61.5177C177.89 66.2879 180.666 70.3732 184.667 72.36Z" fill="#4B9EEA"/>
<path d="M184.667 72.36C183.86 70.7351 183.365 68.928 183.365 66.9923C183.365 60.2838 188.8 54.8481 195.509 54.8481H202.178V37.1492L177.89 61.4375V61.5177C177.89 66.2879 180.666 70.3732 184.667 72.36Z" fill="#4B9EEA"/>
<path d="M202.178 61.5178V54.8458H195.508C188.8 54.8458 183.364 60.284 183.364 66.99C183.364 68.9282 183.86 70.7328 184.666 72.3601C186.291 73.1665 188.096 73.662 190.034 73.662C196.742 73.662 202.178 68.2238 202.178 61.5178Z" fill="#4B9EEA"/>
<path d="M202.178 61.5178V54.8458H195.508C188.8 54.8458 183.364 60.284 183.364 66.99C183.364 68.9282 183.86 70.7328 184.666 72.3601C186.291 73.1665 188.096 73.662 190.034 73.662C196.742 73.662 202.178 68.2238 202.178 61.5178Z" fill="#4B9EEA"/>
<path d="M202.178 61.5178V54.8458H195.508C188.8 54.8458 183.364 60.284 183.364 66.99C183.364 68.9282 183.86 70.7328 184.666 72.3601C186.291 73.1665 188.096 73.662 190.034 73.662C196.742 73.662 202.178 68.2238 202.178 61.5178Z" fill="#4B9EEA"/>
<path d="M202.178 61.5178V54.8458H195.508C188.8 54.8458 183.364 60.284 183.364 66.99C183.364 68.9282 183.86 70.7328 184.666 72.3601C186.291 73.1665 188.096 73.662 190.034 73.662C196.742 73.662 202.178 68.2238 202.178 61.5178Z" fill="#4B9EEA"/>
<path d="M140.191 156.934L177.418 194.161C177.739 189.775 180.357 186.058 184.105 184.198C186.092 180.198 190.177 177.424 194.947 177.424H195.027L158.167 140.564H140.191V156.934Z" fill="#4B9EEA"/>
<path d="M140.191 156.934L177.418 194.161C177.739 189.775 180.357 186.058 184.105 184.198C186.092 180.198 190.177 177.424 194.947 177.424H195.027L158.167 140.564H140.191V156.934Z" fill="#4B9EEA"/>
<path d="M140.191 156.934L177.418 194.161C177.739 189.775 180.357 186.058 184.105 184.198C186.092 180.198 190.177 177.424 194.947 177.424H195.027L158.167 140.564H140.191V156.934Z" fill="#4B9EEA"/>
<path d="M140.191 156.934L177.418 194.161C177.739 189.775 180.357 186.058 184.105 184.198C186.092 180.198 190.177 177.424 194.947 177.424H195.027L158.167 140.564H140.191V156.934Z" fill="#4B9EEA"/>
<path d="M201.621 218.362L202.92 219.661C207.661 224.402 215.351 224.402 220.092 219.661C224.838 214.918 224.838 207.228 220.092 202.487L219.317 201.712H201.621V218.362Z" fill="#4B9EEA"/>
<path d="M201.621 218.362L202.92 219.661C207.661 224.402 215.351 224.402 220.092 219.661C224.838 214.918 224.838 207.228 220.092 202.487L219.317 201.712H201.621V218.362Z" fill="#4B9EEA"/>
<path d="M201.621 218.362L202.92 219.661C207.661 224.402 215.351 224.402 220.092 219.661C224.838 214.918 224.838 207.228 220.092 202.487L219.317 201.712H201.621V218.362Z" fill="#4B9EEA"/>
<path d="M201.621 218.362L202.92 219.661C207.661 224.402 215.351 224.402 220.092 219.661C224.838 214.918 224.838 207.228 220.092 202.487L219.317 201.712H201.621V218.362Z" fill="#4B9EEA"/>
<path d="M128.096 110.489V111.232L128.468 110.86L128.096 110.489Z" fill="#4B9EEA"/>
<g opacity="0.399994">
<g opacity="0.399994">
<path opacity="0.399994" d="M128.093 110.489V111.232L128.464 110.86L128.093 110.489Z" fill="#4B9EEA"/>
</g>
</g>
<path d="M133.112 140.563L128.465 145.21L140.192 156.934V140.563H133.112Z" fill="#4B9EEA"/>
<path d="M133.112 140.563L128.465 145.21L140.192 156.934V140.563H133.112Z" fill="#4B9EEA"/>
<path d="M133.112 140.563L128.465 145.21L140.192 156.934V140.563H133.112Z" fill="#4B9EEA"/>
<path d="M133.112 140.563L128.465 145.21L140.192 156.934V140.563H133.112Z" fill="#4B9EEA"/>
<path d="M140.191 133.486V140.563H158.167L145.639 128.035L140.191 133.486Z" fill="#4B9EEA"/>
<path d="M140.191 133.486V140.563H158.167L145.639 128.035L140.191 133.486Z" fill="#4B9EEA"/>
<path d="M140.191 133.486V140.563H158.167L145.639 128.035L140.191 133.486Z" fill="#4B9EEA"/>
<path d="M140.191 133.486V140.563H158.167L145.639 128.035L140.191 133.486Z" fill="#4B9EEA"/>
<path d="M140.192 140.563V133.486L133.112 140.563H140.192Z" fill="#4B9EEA"/>
<path d="M140.192 140.563V133.486L133.112 140.563H140.192Z" fill="#4B9EEA"/>
<path d="M140.192 140.563V133.486L133.112 140.563H140.192Z" fill="#4B9EEA"/>
<path d="M140.192 140.563V133.486L133.112 140.563H140.192Z" fill="#4B9EEA"/>
<path d="M133.112 140.563H128.096V144.838L128.465 145.21L133.112 140.563Z" fill="#4B9EEA"/>
<path d="M133.112 140.563H128.096V144.838L128.465 145.21L133.112 140.563Z" fill="#4B9EEA"/>
<g opacity="0.399994">
<g opacity="0.399994">
<path opacity="0.399994" d="M133.11 140.563H128.095V144.838L128.464 145.21L133.11 140.563Z" fill="#4B9EEA"/>
</g>
<g opacity="0.399994">
<path opacity="0.399994" d="M133.11 140.563H128.095V144.838L128.464 145.21L133.11 140.563Z" fill="#4B9EEA"/>
</g>
</g>
<path d="M133.882 116.275L128.468 110.861L128.096 111.23V116.275H133.882Z" fill="#4B9EEA"/>
<path d="M133.882 116.275L128.468 110.861L128.096 111.23V116.275H133.882Z" fill="#4B9EEA"/>
<g opacity="0.399994">
<g opacity="0.399994">
<path opacity="0.399994" d="M133.88 115.814L128.466 110.4L128.095 110.77V115.814H133.88Z" fill="#4B9EEA"/>
</g>
<g opacity="0.399994">
<path opacity="0.399994" d="M133.88 115.814L128.466 110.4L128.095 110.77V115.814H133.88Z" fill="#4B9EEA"/>
</g>
</g>
<path d="M145.641 128.035L140.193 122.585V133.485L145.641 128.035Z" fill="#4B9EEA"/>
<path d="M145.641 128.035L140.193 122.585V133.485L145.641 128.035Z" fill="#4B9EEA"/>
<path d="M145.641 128.035L140.193 122.585V133.485L145.641 128.035Z" fill="#4B9EEA"/>
<path d="M145.641 128.035L140.193 122.585V133.485L145.641 128.035Z" fill="#4B9EEA"/>
<path d="M128.096 140.563H133.112L140.192 133.486V122.585L133.882 116.275H128.096V140.563Z" fill="#4B9EEA"/>
<path d="M128.096 140.563H133.112L140.192 133.486V122.585L133.882 116.275H128.096V140.563Z" fill="#4B9EEA"/>
<path d="M128.096 140.563H133.112L140.192 133.486V122.585L133.882 116.275H128.096V140.563Z" fill="#4B9EEA"/>
<path d="M128.096 140.563H133.112L140.192 133.486V122.585L133.882 116.275H128.096V140.563Z" fill="#4B9EEA"/>
<path d="M177.332 195.039V229.951C177.332 236.657 182.767 242.095 189.476 242.095C196.184 242.095 201.62 236.657 201.62 229.951V218.363L177.419 194.162C177.397 194.458 177.332 194.74 177.332 195.039Z" fill="#4B9EEA"/>
<path d="M177.332 195.039V229.951C177.332 236.657 182.767 242.095 189.476 242.095C196.184 242.095 201.62 236.657 201.62 229.951V218.363L177.419 194.162C177.397 194.458 177.332 194.74 177.332 195.039Z" fill="#4B9EEA"/>
<path d="M177.332 195.039V229.951C177.332 236.657 182.767 242.095 189.476 242.095C196.184 242.095 201.62 236.657 201.62 229.951V218.363L177.419 194.162C177.397 194.458 177.332 194.74 177.332 195.039Z" fill="#4B9EEA"/>
<path d="M177.332 195.039V229.951C177.332 236.657 182.767 242.095 189.476 242.095C196.184 242.095 201.62 236.657 201.62 229.951V218.363L177.419 194.162C177.397 194.458 177.332 194.74 177.332 195.039Z" fill="#4B9EEA"/>
<path d="M194.948 201.711C188.242 201.711 182.804 196.275 182.804 189.567C182.804 187.628 183.299 185.824 184.106 184.196C180.358 186.059 177.74 189.776 177.419 194.162L201.62 218.36V201.711H194.948Z" fill="#4B9EEA"/>
<path d="M194.948 201.711C188.242 201.711 182.804 196.275 182.804 189.567C182.804 187.628 183.299 185.824 184.106 184.196C180.358 186.059 177.74 189.776 177.419 194.162L201.62 218.36V201.711H194.948Z" fill="#4B9EEA"/>
<path d="M194.948 201.711C188.242 201.711 182.804 196.275 182.804 189.567C182.804 187.628 183.299 185.824 184.106 184.196C180.358 186.059 177.74 189.776 177.419 194.162L201.62 218.36V201.711H194.948Z" fill="#4B9EEA"/>
<path d="M194.948 201.711C188.242 201.711 182.804 196.275 182.804 189.567C182.804 187.628 183.299 185.824 184.106 184.196C180.358 186.059 177.74 189.776 177.419 194.162L201.62 218.36V201.711H194.948Z" fill="#4B9EEA"/>
<path d="M229.861 201.711C236.567 201.711 242.005 196.275 242.005 189.567C242.005 182.858 236.567 177.423 229.861 177.423H195.029L219.318 201.711H229.861Z" fill="#4B9EEA"/>
<path d="M229.861 201.711C236.567 201.711 242.005 196.275 242.005 189.567C242.005 182.858 236.567 177.423 229.861 177.423H195.029L219.318 201.711H229.861Z" fill="#4B9EEA"/>
<path d="M229.861 201.711C236.567 201.711 242.005 196.275 242.005 189.567C242.005 182.858 236.567 177.423 229.861 177.423H195.029L219.318 201.711H229.861Z" fill="#4B9EEA"/>
<path d="M229.861 201.711C236.567 201.711 242.005 196.275 242.005 189.567C242.005 182.858 236.567 177.423 229.861 177.423H195.029L219.318 201.711H229.861Z" fill="#4B9EEA"/>
<path d="M184.105 184.197C185.733 183.39 187.537 182.895 189.476 182.895C196.184 182.895 201.62 188.333 201.62 195.039V201.711H219.316L195.028 177.423H194.948C190.178 177.423 186.092 180.199 184.105 184.197Z" fill="#4B9EEA"/>
<path d="M184.105 184.197C185.733 183.39 187.537 182.895 189.476 182.895C196.184 182.895 201.62 188.333 201.62 195.039V201.711H219.316L195.028 177.423H194.948C190.178 177.423 186.092 180.199 184.105 184.197Z" fill="#4B9EEA"/>
<path d="M184.105 184.197C185.733 183.39 187.537 182.895 189.476 182.895C196.184 182.895 201.62 188.333 201.62 195.039V201.711H219.316L195.028 177.423H194.948C190.178 177.423 186.092 180.199 184.105 184.197Z" fill="#4B9EEA"/>
<path d="M184.105 184.197C185.733 183.39 187.537 182.895 189.476 182.895C196.184 182.895 201.62 188.333 201.62 195.039V201.711H219.316L195.028 177.423H194.948C190.178 177.423 186.092 180.199 184.105 184.197Z" fill="#4B9EEA"/>
<path d="M194.947 201.711H201.619V195.039C201.619 188.333 196.184 182.895 189.475 182.895C187.537 182.895 185.732 183.39 184.105 184.197C183.299 185.824 182.803 187.629 182.803 189.567C182.803 196.275 188.241 201.711 194.947 201.711Z" fill="#4B9EEA"/>
<path d="M194.947 201.711H201.619V195.039C201.619 188.333 196.184 182.895 189.475 182.895C187.537 182.895 185.732 183.39 184.105 184.197C183.299 185.824 182.803 187.629 182.803 189.567C182.803 196.275 188.241 201.711 194.947 201.711Z" fill="#4B9EEA"/>
<path d="M194.947 201.711H201.619V195.039C201.619 188.333 196.184 182.895 189.475 182.895C187.537 182.895 185.732 183.39 184.105 184.197C183.299 185.824 182.803 187.629 182.803 189.567C182.803 196.275 188.241 201.711 194.947 201.711Z" fill="#4B9EEA"/>
<path d="M194.947 201.711H201.619V195.039C201.619 188.333 196.184 182.895 189.475 182.895C187.537 182.895 185.732 183.39 184.105 184.197C183.299 185.824 182.803 187.629 182.803 189.567C182.803 196.275 188.241 201.711 194.947 201.711Z" fill="#4B9EEA"/>
<rect x="120.693" y="112.941" width="14.573" height="32.7893" fill="#4B9EEA"/>
</svg>
